<svg version="1.1" width="300" height="192" xmlns="http://www.w3.org/2000/svg" id="pieces">
   <g stroke="black" stroke-width="1" fill="white">
      <rect x="6.66" y="1" width="30" height="60" rx="4"/>
      <rect x="43.32" y="1" width="30" height="60" rx="4"/>
      <rect x="79.98" y="1" width="30" height="60" rx="4"/>
      <rect x="116.64" y="1" width="30" height="60" rx="4"/>
      <rect x="153.3" y="1" width="30" height="60" rx="4"/>
      <rect x="189.96" y="1" width="30" height="60" rx="4"/>
      <rect x="226.62" y="1" width="30" height="60" rx="4"/>
      <rect x="263.28" y="1" width="30" height="60" rx="4"/>
      <rect x="6.66" y="66" width="30" height="60" rx="4"/>
      <rect x="43.32" y="66" width="30" height="60" rx="4"/>
      <rect x="79.98" y="66" width="30" height="60" rx="4"/>
      <rect x="116.64" y="66" width="30" height="60" rx="4"/>
      <rect x="153.3" y="66" width="30" height="60" rx="4"/>
      <rect x="189.96" y="66" width="30" height="60" rx="4"/>
      <rect x="226.62" y="66" width="30" height="60" rx="4"/>
      <rect x="263.28" y="66" width="30" height="60" rx="4"/>
      <rect x="6.66" y="131" width="30" height="60" rx="4"/>
      <rect x="43.32" y="131" width="30" height="60" rx="4"/>
      <rect x="79.98" y="131" width="30" height="60" rx="4"/>
      <rect x="116.64" y="131" width="30" height="60" rx="4"/>
      <rect x="153.3" y="131" width="30" height="60" rx="4"/>
      <rect x="189.96" y="131" width="30" height="60" rx="4"/>
   </g>
   <g stroke="black">
      <line x1="11.6" y1="30.8" x2="31.6" y2="30.8"/>
      <line x1="48.32" y1="30.8" x2="68.32" y2="30.8"/>
      <line x1="84.98" y1="30.8" x2="104.98" y2="30.8"/>
      <line x1="121.64" y1="30.8" x2="141.64" y2="30.8"/>
      <line x1="158.3" y1="30.8" x2="178.3" y2="30.8"/>
      <line x1="194.96" y1="30.8" x2="214.96" y2="30.8"/>
      <line x1="231.62" y1="30.8" x2="251.62" y2="30.8"/>
      <line x1="268.28" y1="30.8" x2="288.28" y2="30.8"/>
      <line x1="11.6" y1="95.8" x2="31.6" y2="95.8"/>
      <line x1="48.32" y1="95.8" x2="68.32" y2="95.8"/>
      <line x1="84.98" y1="95.8" x2="104.98" y2="95.8"/>
      <line x1="121.64" y1="95.8" x2="141.64" y2="95.8"/>
      <line x1="158.3" y1="95.8" x2="178.3" y2="95.8"/>
      <line x1="194.96" y1="95.8" x2="214.96" y2="95.8"/>
      <line x1="231.62" y1="95.8" x2="251.62" y2="95.8"/>
      <line x1="268.28" y1="95.8" x2="288.28" y2="95.8"/>
      <line x1="11.6" y1="160.9" x2="31.6" y2="160.9"/>
      <line x1="48.32" y1="160.9" x2="68.32" y2="160.9"/>
      <line x1="84.98" y1="160.9" x2="104.98" y2="160.9"/>
      <line x1="121.64" y1="160.9" x2="141.64" y2="160.9"/>
      <line x1="158.3" y1="160.9" x2="178.3" y2="160.9"/>
      <line x1="194.96" y1="160.9" x2="214.96" y2="160.9"/>
   </g>
   <g fill="black">
      <g id="gg">
         <circle cx="11.66" cy="7" r="3"/>
         <circle cx="11.66" cy="16" r="3"/>
         <circle cx="11.66" cy="25" r="3"/>
         <circle cx="11.66" cy="36.5" r="3"/>
         <circle cx="11.66" cy="45.5" r="3"/>
         <circle cx="11.66" cy="54.5" r="3"/>
         <circle cx="31.66" cy="7" r="3"/>
         <circle cx="31.66" cy="16" r="3"/>
         <circle cx="31.66" cy="25" r="3"/>
         <circle cx="31.66" cy="36.5" r="3"/>
         <circle cx="31.66" cy="45.5" r="3"/>
         <circle cx="31.66" cy="54.5" r="3"/>
         <circle cx="21.66" cy="16" r="3"/>
         <circle cx="21.66" cy="45.5" r="3"/>
      </g>
      <g>
         <circle cx="48.32" cy="7" r="3"/>
         <circle cx="48.32" cy="16" r="3"/>
         <circle cx="48.32" cy="25" r="3"/>
         <circle cx="48.32" cy="36.5" r="3"/>
         <circle cx="48.32" cy="45.5" r="3"/>
         <circle cx="48.32" cy="54.5" r="3"/>
         <circle cx="68.32" cy="7" r="3"/>
         <circle cx="68.32" cy="16" r="3"/>
         <circle cx="68.32" cy="25" r="3"/>
         <circle cx="68.32" cy="36.5" r="3"/>
         <circle cx="68.32" cy="45.5" r="3"/>
         <circle cx="68.32" cy="54.5" r="3"/>
         <circle cx="58.32" cy="16" r="3"/>
         <circle cx="58.32" cy="45.5" r="3"/>
      </g>
      <g>
         <circle cx="84.98" cy="7" r="3"/>
         <circle cx="84.98" cy="16" r="3"/>
         <circle cx="84.98" cy="25" r="3"/>
         <circle cx="84.98" cy="36.5" r="3"/>
         <circle cx="84.98" cy="45.5" r="3"/>
         <circle cx="84.98" cy="54.5" r="3"/>
         <circle cx="104.98" cy="7" r="3"/>
         <circle cx="104.98" cy="16" r="3"/>
         <circle cx="104.98" cy="25" r="3"/>
         <circle cx="104.98" cy="36.5" r="3"/>
         <circle cx="104.98" cy="45.5" r="3"/>
         <circle cx="104.98" cy="54.5" r="3"/>
         <circle cx="94.98" cy="16" r="3"/>
         <circle cx="94.98" cy="45.5" r="3"/>
      </g>
      <g>
         <circle cx="121.64" cy="7" r="3"/>
         <circle cx="121.64" cy="16" r="3"/>
         <circle cx="121.64" cy="25" r="3"/>
         <circle cx="121.64" cy="36.5" r="3"/>
         <circle cx="121.64" cy="45.5" r="3"/>
         <circle cx="121.64" cy="54.5" r="3"/>
         <circle cx="141.64" cy="7" r="3"/>
         <circle cx="141.64" cy="16" r="3"/>
         <circle cx="141.64" cy="25" r="3"/>
         <circle cx="141.64" cy="36.5" r="3"/>
         <circle cx="141.64" cy="45.5" r="3"/>
         <circle cx="141.64" cy="54.5" r="3"/>
         <circle cx="131.64" cy="16" r="3"/>
         <circle cx="131.64" cy="45.5" r="3"/>
      </g>
      <g>
         <circle cx="158.3" cy="7" r="3"/>
         <circle cx="158.3" cy="16" r="3"/>
         <circle cx="158.3" cy="25" r="3"/>
         <circle cx="158.3" cy="36.5" r="3"/>
         <circle cx="158.3" cy="45.5" r="3"/>
         <circle cx="158.3" cy="54.5" r="3"/>
         <circle cx="178.3" cy="7" r="3"/>
         <circle cx="178.3" cy="16" r="3"/>
         <circle cx="178.3" cy="25" r="3"/>
         <circle cx="178.3" cy="36.5" r="3"/>
         <circle cx="178.3" cy="45.5" r="3"/>
         <circle cx="178.3" cy="54.5" r="3"/>
         <circle cx="168.3" cy="16" r="3"/>
         <circle cx="168.3" cy="45.5" r="3"/>
      </g>
      <g>
         <circle cx="194.96" cy="7" r="3"/>
         <circle cx="194.96" cy="16" r="3"/>
         <circle cx="194.96" cy="25" r="3"/>
         <circle cx="194.96" cy="36.5" r="3"/>
         <circle cx="194.96" cy="45.5" r="3"/>
         <circle cx="194.96" cy="54.5" r="3"/>
         <circle cx="214.96" cy="7" r="3"/>
         <circle cx="214.96" cy="16" r="3"/>
         <circle cx="214.96" cy="25" r="3"/>
         <circle cx="214.96" cy="36.5" r="3"/>
         <circle cx="214.96" cy="45.5" r="3"/>
         <circle cx="214.96" cy="54.5" r="3"/>
         <circle cx="204.96" cy="16" r="3"/>
         <circle cx="204.96" cy="45.5" r="3"/>
      </g>
      <g>
         <circle cx="231.62" cy="7" r="3"/>
         <circle cx="231.62" cy="16" r="3"/>
         <circle cx="231.62" cy="25" r="3"/>
         <circle cx="231.62" cy="36.5" r="3"/>
         <circle cx="231.62" cy="45.5" r="3"/>
         <circle cx="231.62" cy="54.5" r="3"/>
         <circle cx="251.62" cy="7" r="3"/>
         <circle cx="251.62" cy="16" r="3"/>
         <circle cx="251.62" cy="25" r="3"/>
         <circle cx="251.62" cy="36.5" r="3"/>
         <circle cx="251.62" cy="45.5" r="3"/>
         <circle cx="251.62" cy="54.5" r="3"/>
         <circle cx="241.62" cy="16" r="3"/>
         <circle cx="241.62" cy="45.5" r="3"/>
      </g>
      <g>
         <circle cx="268.28" cy="7" r="3"/>
         <circle cx="268.28" cy="16" r="3"/>
         <circle cx="268.28" cy="25" r="3"/>
         <circle cx="268.28" cy="36.5" r="3"/>
         <circle cx="268.28" cy="45.5" r="3"/>
         <circle cx="268.28" cy="54.5" r="3"/>
         <circle cx="288.28" cy="7" r="3"/>
         <circle cx="288.28" cy="16" r="3"/>
         <circle cx="288.28" cy="25" r="3"/>
         <circle cx="288.28" cy="36.5" r="3"/>
         <circle cx="288.28" cy="45.5" r="3"/>
         <circle cx="288.28" cy="54.5" r="3"/>
         <circle cx="278.28" cy="16" r="3"/>
         <circle cx="278.28" cy="45.5" r="3"/>
      </g>
      <g>
         <circle cx="11.66" cy="72.00" r="3"/>
         <circle cx="11.66" cy="81.00" r="3"/>
         <circle cx="11.66" cy="90.00" r="3"/>
         <circle cx="11.66" cy="101.50" r="3"/>
         <circle cx="11.66" cy="110.50" r="3"/>
         <circle cx="11.66" cy="119.50" r="3"/>
         <circle cx="31.66" cy="72.00" r="3"/>
         <circle cx="31.66" cy="81.00" r="3"/>
         <circle cx="31.66" cy="90.00" r="3"/>
         <circle cx="31.66" cy="101.50" r="3"/>
         <circle cx="31.66" cy="110.50" r="3"/>
         <circle cx="31.66" cy="119.50" r="3"/>
         <circle cx="21.66" cy="81.00" r="3"/>
         <circle cx="21.66" cy="110.50" r="3"/>
      </g>
      <g>
         <circle cx="48.32" cy="72.00" r="3"/>
         <circle cx="48.32" cy="81.00" r="3"/>
         <circle cx="48.32" cy="90.00" r="3"/>
         <circle cx="48.32" cy="101.50" r="3"/>
         <circle cx="48.32" cy="110.50" r="3"/>
         <circle cx="48.32" cy="119.50" r="3"/>
         <circle cx="68.32" cy="72.00" r="3"/>
         <circle cx="68.32" cy="81.00" r="3"/>
         <circle cx="68.32" cy="90.00" r="3"/>
         <circle cx="68.32" cy="101.50" r="3"/>
         <circle cx="68.32" cy="110.50" r="3"/>
         <circle cx="68.32" cy="119.50" r="3"/>
         <circle cx="58.32" cy="81.00" r="3"/>
         <circle cx="58.32" cy="110.50" r="3"/>
      </g>
      <g>
         <circle cx="84.98" cy="72.00" r="3"/>
         <circle cx="84.98" cy="81.00" r="3"/>
         <circle cx="84.98" cy="90.00" r="3"/>
         <circle cx="84.98" cy="101.50" r="3"/>
         <circle cx="84.98" cy="110.50" r="3"/>
         <circle cx="84.98" cy="119.50" r="3"/>
         <circle cx="104.98" cy="72.00" r="3"/>
         <circle cx="104.98" cy="81.00" r="3"/>
         <circle cx="104.98" cy="90.00" r="3"/>
         <circle cx="104.98" cy="101.50" r="3"/>
         <circle cx="104.98" cy="110.50" r="3"/>
         <circle cx="104.98" cy="119.50" r="3"/>
         <circle cx="94.98" cy="81.00" r="3"/>
         <circle cx="94.98" cy="110.50" r="3"/>
      </g>
      <g>
         <circle cx="121.64" cy="72.00" r="3"/>
         <circle cx="121.64" cy="81.00" r="3"/>
         <circle cx="121.64" cy="90.00" r="3"/>
         <circle cx="121.64" cy="101.50" r="3"/>
         <circle cx="121.64" cy="110.50" r="3"/>
         <circle cx="121.64" cy="119.50" r="3"/>
         <circle cx="141.64" cy="72.00" r="3"/>
         <circle cx="141.64" cy="81.00" r="3"/>
         <circle cx="141.64" cy="90.00" r="3"/>
         <circle cx="141.64" cy="101.50" r="3"/>
         <circle cx="141.64" cy="110.50" r="3"/>
         <circle cx="141.64" cy="119.50" r="3"/>
         <circle cx="131.64" cy="81.00" r="3"/>
         <circle cx="131.64" cy="110.50" r="3"/>
      </g>
      <g>
         <circle cx="158.30" cy="72.00" r="3"/>
         <circle cx="158.30" cy="81.00" r="3"/>
         <circle cx="158.30" cy="90.00" r="3"/>
         <circle cx="158.30" cy="101.50" r="3"/>
         <circle cx="158.30" cy="110.50" r="3"/>
         <circle cx="158.30" cy="119.50" r="3"/>
         <circle cx="178.30" cy="72.00" r="3"/>
         <circle cx="178.30" cy="81.00" r="3"/>
         <circle cx="178.30" cy="90.00" r="3"/>
         <circle cx="178.30" cy="101.50" r="3"/>
         <circle cx="178.30" cy="110.50" r="3"/>
         <circle cx="178.30" cy="119.50" r="3"/>
         <circle cx="168.30" cy="81.00" r="3"/>
         <circle cx="168.30" cy="110.50" r="3"/>
      </g>
      <g>
         <circle cx="194.96" cy="72.00" r="3"/>
         <circle cx="194.96" cy="81.00" r="3"/>
         <circle cx="194.96" cy="90.00" r="3"/>
         <circle cx="194.96" cy="101.50" r="3"/>
         <circle cx="194.96" cy="110.50" r="3"/>
         <circle cx="194.96" cy="119.50" r="3"/>
         <circle cx="214.96" cy="72.00" r="3"/>
         <circle cx="214.96" cy="81.00" r="3"/>
         <circle cx="214.96" cy="90.00" r="3"/>
         <circle cx="214.96" cy="101.50" r="3"/>
         <circle cx="214.96" cy="110.50" r="3"/>
         <circle cx="214.96" cy="119.50" r="3"/>
         <circle cx="204.96" cy="81.00" r="3"/>
         <circle cx="204.96" cy="110.50" r="3"/>
      </g>
      <g>
         <circle cx="231.62" cy="72.00" r="3"/>
         <circle cx="231.62" cy="81.00" r="3"/>
         <circle cx="231.62" cy="90.00" r="3"/>
         <circle cx="231.62" cy="101.50" r="3"/>
         <circle cx="231.62" cy="110.50" r="3"/>
         <circle cx="231.62" cy="119.50" r="3"/>
         <circle cx="251.62" cy="72.00" r="3"/>
         <circle cx="251.62" cy="81.00" r="3"/>
         <circle cx="251.62" cy="90.00" r="3"/>
         <circle cx="251.62" cy="101.50" r="3"/>
         <circle cx="251.62" cy="110.50" r="3"/>
         <circle cx="251.62" cy="119.50" r="3"/>
         <circle cx="241.62" cy="81.00" r="3"/>
         <circle cx="241.62" cy="110.50" r="3"/>
      </g>
      <g>
         <circle cx="268.28" cy="72.00" r="3"/>
         <circle cx="268.28" cy="81.00" r="3"/>
         <circle cx="268.28" cy="90.00" r="3"/>
         <circle cx="268.28" cy="101.50" r="3"/>
         <circle cx="268.28" cy="110.50" r="3"/>
         <circle cx="268.28" cy="119.50" r="3"/>
         <circle cx="288.28" cy="72.00" r="3"/>
         <circle cx="288.28" cy="81.00" r="3"/>
         <circle cx="288.28" cy="90.00" r="3"/>
         <circle cx="288.28" cy="101.50" r="3"/>
         <circle cx="288.28" cy="110.50" r="3"/>
         <circle cx="288.28" cy="119.50" r="3"/>
         <circle cx="278.28" cy="81.00" r="3"/>
         <circle cx="278.28" cy="110.50" r="3"/>
      </g>
      <g>
         <circle cx="11.66" cy="137.00" r="3"/>
         <circle cx="11.66" cy="146.00" r="3"/>
         <circle cx="11.66" cy="155.00" r="3"/>
         <circle cx="11.66" cy="166.50" r="3"/>
         <circle cx="11.66" cy="175.50" r="3"/>
         <circle cx="11.66" cy="184.50" r="3"/>
         <circle cx="31.66" cy="137.00" r="3"/>
         <circle cx="31.66" cy="146.00" r="3"/>
         <circle cx="31.66" cy="155.00" r="3"/>
         <circle cx="31.66" cy="166.50" r="3"/>
         <circle cx="31.66" cy="175.50" r="3"/>
         <circle cx="31.66" cy="184.50" r="3"/>
         <circle cx="21.66" cy="146.00" r="3"/>
         <circle cx="21.66" cy="175.50" r="3"/>
      </g>
      <g>
         <circle cx="48.32" cy="137.00" r="3"/>
         <circle cx="48.32" cy="146.00" r="3"/>
         <circle cx="48.32" cy="155.00" r="3"/>
         <circle cx="48.32" cy="166.50" r="3"/>
         <circle cx="48.32" cy="175.50" r="3"/>
         <circle cx="48.32" cy="184.50" r="3"/>
         <circle cx="68.32" cy="137.00" r="3"/>
         <circle cx="68.32" cy="146.00" r="3"/>
         <circle cx="68.32" cy="155.00" r="3"/>
         <circle cx="68.32" cy="166.50" r="3"/>
         <circle cx="68.32" cy="175.50" r="3"/>
         <circle cx="68.32" cy="184.50" r="3"/>
         <circle cx="58.32" cy="146.00" r="3"/>
         <circle cx="58.32" cy="175.50" r="3"/>
      </g>
      <g>
         <circle cx="84.98" cy="137.00" r="3"/>
         <circle cx="84.98" cy="146.00" r="3"/>
         <circle cx="84.98" cy="155.00" r="3"/>
         <circle cx="84.98" cy="166.50" r="3"/>
         <circle cx="84.98" cy="175.50" r="3"/>
         <circle cx="84.98" cy="184.50" r="3"/>
         <circle cx="104.98" cy="137.00" r="3"/>
         <circle cx="104.98" cy="146.00" r="3"/>
         <circle cx="104.98" cy="155.00" r="3"/>
         <circle cx="104.98" cy="166.50" r="3"/>
         <circle cx="104.98" cy="175.50" r="3"/>
         <circle cx="104.98" cy="184.50" r="3"/>
         <circle cx="94.98" cy="146.00" r="3"/>
         <circle cx="94.98" cy="175.50" r="3"/>
      </g>
      <g>
         <circle cx="121.64" cy="137.00" r="3"/>
         <circle cx="121.64" cy="146.00" r="3"/>
         <circle cx="121.64" cy="155.00" r="3"/>
         <circle cx="121.64" cy="166.50" r="3"/>
         <circle cx="121.64" cy="175.50" r="3"/>
         <circle cx="121.64" cy="184.50" r="3"/>
         <circle cx="141.64" cy="137.00" r="3"/>
         <circle cx="141.64" cy="146.00" r="3"/>
         <circle cx="141.64" cy="155.00" r="3"/>
         <circle cx="141.64" cy="166.50" r="3"/>
         <circle cx="141.64" cy="175.50" r="3"/>
         <circle cx="141.64" cy="184.50" r="3"/>
         <circle cx="131.64" cy="146.00" r="3"/>
         <circle cx="131.64" cy="175.50" r="3"/>
      </g>
      <g>
         <circle cx="158.30" cy="137.00" r="3"/>
         <circle cx="158.30" cy="146.00" r="3"/>
         <circle cx="158.30" cy="155.00" r="3"/>
         <circle cx="158.30" cy="166.50" r="3"/>
         <circle cx="158.30" cy="175.50" r="3"/>
         <circle cx="158.30" cy="184.50" r="3"/>
         <circle cx="178.30" cy="137.00" r="3"/>
         <circle cx="178.30" cy="146.00" r="3"/>
         <circle cx="178.30" cy="155.00" r="3"/>
         <circle cx="178.30" cy="166.50" r="3"/>
         <circle cx="178.30" cy="175.50" r="3"/>
         <circle cx="178.30" cy="184.50" r="3"/>
         <circle cx="168.30" cy="146.00" r="3"/>
         <circle cx="168.30" cy="175.50" r="3"/>
      </g>
      <g>
         <circle cx="194.96" cy="137.00" r="3"/>
         <circle cx="194.96" cy="146.00" r="3"/>
         <circle cx="194.96" cy="155.00" r="3"/>
         <circle cx="194.96" cy="166.50" r="3"/>
         <circle cx="194.96" cy="175.50" r="3"/>
         <circle cx="194.96" cy="184.50" r="3"/>
         <circle cx="214.96" cy="137.00" r="3"/>
         <circle cx="214.96" cy="146.00" r="3"/>
         <circle cx="214.96" cy="155.00" r="3"/>
         <circle cx="214.96" cy="166.50" r="3"/>
         <circle cx="214.96" cy="175.50" r="3"/>
         <circle cx="214.96" cy="184.50" r="3"/>
         <circle cx="204.96" cy="146.00" r="3"/>
         <circle cx="204.96" cy="175.50" r="3"/>
      </g>
   </g>
   <text x="228" y="180" font-size="50">35</text>
</svg>
