<svg version="1.1" width="300" height="300" xmlns="http://www.w3.org/2000/svg" id="board">
   <g stroke="black" stroke-width="1" fill="white">
      <rect x="30" y="120" width="30" height="60" rx="4"/>
      <rect x="0" y="90" width="30" height="60" rx="4"/>
      <rect x="30" y="60" width="30" height="60" rx="4"/>
      <rect x="0" y="30" width="30" height="60" rx="4"/>
      <rect x="0" y="0" width="60" height="30" rx="4"/>
      <rect x="30" y="30" width="60" height="30" rx="4"/>
      <rect x="60" y="0" width="60" height="30" rx="4"/>
      <rect x="90" y="30" width="60" height="30" rx="4"/>
      <rect x="120" y="0" width="60" height="30" rx="4"/>
      <rect x="150" y="30" width="60" height="30" rx="4"/>
      <rect x="180" y="0" width="60" height="30" rx="4"/>
      <rect x="210" y="30" width="60" height="30" rx="4"/>
      <rect x="240" y="0" width="60" height="30" rx="4"/>
      <rect x="270" y="30" width="30" height="60" rx="4"/>
      <rect x="240" y="60" width="30" height="60" rx="4"/>
      <rect x="270" y="90" width="30" height="60" rx="4"/>
      <rect x="240" y="120" width="30" height="60" rx="4"/>
      <rect x="270" y="150" width="30" height="60" rx="4"/>
      <rect x="240" y="180" width="30" height="60" rx="4"/>
      <rect x="270" y="210" width="30" height="60" rx="4"/>
      <rect x="240" y="270" width="60" height="30" rx="4"/>
      <rect x="210" y="240" width="60" height="30" rx="4"/>
      <rect x="180" y="270" width="60" height="30" rx="4"/>
      <rect x="150" y="240" width="60" height="30" rx="4"/>
      <rect x="120" y="270" width="60" height="30" rx="4"/>
      <rect x="90" y="240" width="60" height="30" rx="4"/>
      <rect x="60" y="270" width="60" height="30" rx="4"/>
      <rect x="30" y="240" width="60" height="30" rx="4"/>
      <rect x="0" y="270" width="60" height="30" rx="4"/>
      <rect x="0" y="210" width="30" height="60" rx="4"/>
      <rect x="30" y="180" width="30" height="60" rx="4"/>
      <rect x="0" y="150" width="30" height="60" rx="4"/>
   </g>
   <g stroke="black" stroke-width="1">
      <line x1="35" y1="150" x2="55" y2="150"/>
      <line x1="5" y1="120" x2="25" y2="120"/>
      <line x1="35" y1="90" x2="55" y2="90"/>
      <line x1="5" y1="60" x2="25" y2="60"/>
      <line x1="30" y1="5" x2="30" y2="25"/>
      <line x1="60" y1="35" x2="60" y2="55"/>
      <line x1="90" y1="5" x2="90" y2="25"/>
      <line x1="120" y1="35" x2="120" y2="55"/>
      <line x1="150" y1="5" x2="150" y2="25"/>
      <line x1="180" y1="35" x2="180" y2="55"/>
      <line x1="210" y1="5" x2="210" y2="25"/>
      <line x1="240" y1="35" x2="240" y2="55"/>
      <line x1="270" y1="5" x2="270" y2="25"/>
      <line x1="275" y1="60" x2="295" y2="60"/>
      <line x1="245" y1="90" x2="265" y2="90"/>
      <line x1="275" y1="120" x2="295" y2="120"/>
      <line x1="245" y1="150" x2="265" y2="150"/>
      <line x1="275" y1="180" x2="295" y2="180"/>
      <line x1="245" y1="210" x2="265" y2="210"/>
      <line x1="275" y1="240" x2="295" y2="240"/>
      <line x1="270" y1="275" x2="270" y2="295"/>
      <line x1="240" y1="245" x2="240" y2="265"/>
      <line x1="210" y1="275" x2="210" y2="295"/>
      <line x1="180" y1="245" x2="180" y2="265"/>
      <line x1="150" y1="275" x2="150" y2="295"/>
      <line x1="120" y1="245" x2="120" y2="265"/>
      <line x1="90" y1="275" x2="90" y2="295"/>
      <line x1="60" y1="245" x2="60" y2="265"/>
      <line x1="30" y1="275" x2="30" y2="295"/>
      <line x1="5" y1="240" x2="25" y2="240"/>
      <line x1="35" y1="210" x2="55" y2="210"/>
      <line x1="5" y1="180" x2="25" y2="180"/>
   </g>
   <g fill="black">
      <g>
         <circle cx="35" cy="127" r="3"/>
         <circle cx="35" cy="136" r="3"/>
         <circle cx="35" cy="145" r="3"/>
         <circle cx="35" cy="155" r="3"/>
         <circle cx="35" cy="164" r="3"/>
         <circle cx="35" cy="173" r="3"/>
         <circle cx="55" cy="127" r="3"/>
         <circle cx="55" cy="136" r="3"/>
         <circle cx="55" cy="145" r="3"/>
         <circle cx="55" cy="155" r="3"/>
         <circle cx="55" cy="164" r="3"/>
         <circle cx="55" cy="173" r="3"/>
         <circle cx="45" cy="136" r="3"/>
         <circle cx="45" cy="164" r="3"/>
      </g>
      <g>
         <circle cx="5" cy="97" r="3"/>
         <circle cx="5" cy="106" r="3"/>
         <circle cx="5" cy="115" r="3"/>
         <circle cx="5" cy="125" r="3"/>
         <circle cx="5" cy="134" r="3"/>
         <circle cx="5" cy="143" r="3"/>
         <circle cx="25" cy="97" r="3"/>
         <circle cx="25" cy="106" r="3"/>
         <circle cx="25" cy="115" r="3"/>
         <circle cx="25" cy="125" r="3"/>
         <circle cx="25" cy="134" r="3"/>
         <circle cx="25" cy="143" r="3"/>
         <circle cx="15" cy="106" r="3"/>
         <circle cx="15" cy="134" r="3"/>
      </g>
      <g>
         <circle cx="35" cy="67" r="3"/>
         <circle cx="35" cy="76" r="3"/>
         <circle cx="35" cy="85" r="3"/>
         <circle cx="35" cy="95" r="3"/>
         <circle cx="35" cy="104" r="3"/>
         <circle cx="35" cy="113" r="3"/>
         <circle cx="55" cy="67" r="3"/>
         <circle cx="55" cy="76" r="3"/>
         <circle cx="55" cy="85" r="3"/>
         <circle cx="55" cy="95" r="3"/>
         <circle cx="55" cy="104" r="3"/>
         <circle cx="55" cy="113" r="3"/>
         <circle cx="45" cy="76" r="3"/>
         <circle cx="45" cy="104" r="3"/>
      </g>
      <g>
         <circle cx="5" cy="37" r="3"/>
         <circle cx="5" cy="46" r="3"/>
         <circle cx="5" cy="55" r="3"/>
         <circle cx="5" cy="65" r="3"/>
         <circle cx="5" cy="74" r="3"/>
         <circle cx="5" cy="83" r="3"/>
         <circle cx="25" cy="37" r="3"/>
         <circle cx="25" cy="46" r="3"/>
         <circle cx="25" cy="55" r="3"/>
         <circle cx="25" cy="65" r="3"/>
         <circle cx="25" cy="74" r="3"/>
         <circle cx="25" cy="83" r="3"/>
         <circle cx="15" cy="46" r="3"/>
         <circle cx="15" cy="74" r="3"/>
      </g>
      <g>
         <circle cx="7" cy="5" r="3"/>
         <circle cx="16" cy="5" r="3"/>
         <circle cx="25" cy="5" r="3"/>
         <circle cx="35" cy="5" r="3"/>
         <circle cx="44" cy="5" r="3"/>
         <circle cx="53" cy="5" r="3"/>
         <circle cx="7" cy="24" r="3"/>
         <circle cx="16" cy="24" r="3"/>
         <circle cx="25" cy="24" r="3"/>
         <circle cx="35" cy="24" r="3"/>
         <circle cx="44" cy="24" r="3"/>
         <circle cx="53" cy="24" r="3"/>
         <circle cx="16" cy="14.5" r="3"/>
         <circle cx="44" cy="14.5" r="3"/>
      </g>
      <g>
         <circle cx="37" cy="35" r="3"/>
         <circle cx="46" cy="35" r="3"/>
         <circle cx="55" cy="35" r="3"/>
         <circle cx="65" cy="35" r="3"/>
         <circle cx="74" cy="35" r="3"/>
         <circle cx="83" cy="35" r="3"/>
         <circle cx="37" cy="54" r="3"/>
         <circle cx="46" cy="54" r="3"/>
         <circle cx="55" cy="54" r="3"/>
         <circle cx="65" cy="54" r="3"/>
         <circle cx="74" cy="54" r="3"/>
         <circle cx="83" cy="54" r="3"/>
         <circle cx="46" cy="44.5" r="3"/>
         <circle cx="74" cy="44.5" r="3"/>
      </g>
      <g>
         <circle cx="67" cy="5" r="3"/>
         <circle cx="76" cy="5" r="3"/>
         <circle cx="85" cy="5" r="3"/>
         <circle cx="95" cy="5" r="3"/>
         <circle cx="104" cy="5" r="3"/>
         <circle cx="113" cy="5" r="3"/>
         <circle cx="67" cy="24" r="3"/>
         <circle cx="76" cy="24" r="3"/>
         <circle cx="85" cy="24" r="3"/>
         <circle cx="95" cy="24" r="3"/>
         <circle cx="104" cy="24" r="3"/>
         <circle cx="113" cy="24" r="3"/>
         <circle cx="76" cy="14.5" r="3"/>
         <circle cx="104" cy="14.5" r="3"/>
      </g>
      <g>
         <circle cx="97" cy="35" r="3"/>
         <circle cx="106" cy="35" r="3"/>
         <circle cx="115" cy="35" r="3"/>
         <circle cx="125" cy="35" r="3"/>
         <circle cx="134" cy="35" r="3"/>
         <circle cx="143" cy="35" r="3"/>
         <circle cx="97" cy="54" r="3"/>
         <circle cx="106" cy="54" r="3"/>
         <circle cx="115" cy="54" r="3"/>
         <circle cx="125" cy="54" r="3"/>
         <circle cx="134" cy="54" r="3"/>
         <circle cx="143" cy="54" r="3"/>
         <circle cx="106" cy="44.5" r="3"/>
         <circle cx="134" cy="44.5" r="3"/>
      </g>
      <g>
         <circle cx="127" cy="5" r="3"/>
         <circle cx="136" cy="5" r="3"/>
         <circle cx="145" cy="5" r="3"/>
         <circle cx="155" cy="5" r="3"/>
         <circle cx="164" cy="5" r="3"/>
         <circle cx="173" cy="5" r="3"/>
         <circle cx="127" cy="24" r="3"/>
         <circle cx="136" cy="24" r="3"/>
         <circle cx="145" cy="24" r="3"/>
         <circle cx="155" cy="24" r="3"/>
         <circle cx="164" cy="24" r="3"/>
         <circle cx="173" cy="24" r="3"/>
         <circle cx="136" cy="14.5" r="3"/>
         <circle cx="164" cy="14.5" r="3"/>
      </g>
      <g>
         <circle cx="157" cy="35" r="3"/>
         <circle cx="166" cy="35" r="3"/>
         <circle cx="175" cy="35" r="3"/>
         <circle cx="185" cy="35" r="3"/>
         <circle cx="194" cy="35" r="3"/>
         <circle cx="203" cy="35" r="3"/>
         <circle cx="157" cy="54" r="3"/>
         <circle cx="166" cy="54" r="3"/>
         <circle cx="175" cy="54" r="3"/>
         <circle cx="185" cy="54" r="3"/>
         <circle cx="194" cy="54" r="3"/>
         <circle cx="203" cy="54" r="3"/>
         <circle cx="166" cy="44.5" r="3"/>
         <circle cx="194" cy="44.5" r="3"/>
      </g>
      <g>
         <circle cx="187" cy="5" r="3"/>
         <circle cx="196" cy="5" r="3"/>
         <circle cx="205" cy="5" r="3"/>
         <circle cx="215" cy="5" r="3"/>
         <circle cx="224" cy="5" r="3"/>
         <circle cx="233" cy="5" r="3"/>
         <circle cx="187" cy="24" r="3"/>
         <circle cx="196" cy="24" r="3"/>
         <circle cx="205" cy="24" r="3"/>
         <circle cx="215" cy="24" r="3"/>
         <circle cx="224" cy="24" r="3"/>
         <circle cx="233" cy="24" r="3"/>
         <circle cx="196" cy="14.5" r="3"/>
         <circle cx="224" cy="14.5" r="3"/>
      </g>
      <g>
         <circle cx="217" cy="35" r="3"/>
         <circle cx="226" cy="35" r="3"/>
         <circle cx="235" cy="35" r="3"/>
         <circle cx="245" cy="35" r="3"/>
         <circle cx="254" cy="35" r="3"/>
         <circle cx="263" cy="35" r="3"/>
         <circle cx="217" cy="54" r="3"/>
         <circle cx="226" cy="54" r="3"/>
         <circle cx="235" cy="54" r="3"/>
         <circle cx="245" cy="54" r="3"/>
         <circle cx="254" cy="54" r="3"/>
         <circle cx="263" cy="54" r="3"/>
         <circle cx="226" cy="44.5" r="3"/>
         <circle cx="254" cy="44.5" r="3"/>
      </g>
      <g>
         <circle cx="247" cy="5" r="3"/>
         <circle cx="256" cy="5" r="3"/>
         <circle cx="265" cy="5" r="3"/>
         <circle cx="275" cy="5" r="3"/>
         <circle cx="284" cy="5" r="3"/>
         <circle cx="293" cy="5" r="3"/>
         <circle cx="247" cy="24" r="3"/>
         <circle cx="256" cy="24" r="3"/>
         <circle cx="265" cy="24" r="3"/>
         <circle cx="275" cy="24" r="3"/>
         <circle cx="284" cy="24" r="3"/>
         <circle cx="293" cy="24" r="3"/>
         <circle cx="256" cy="14.5" r="3"/>
         <circle cx="284" cy="14.5" r="3"/>
      </g>
      <g>
         <circle cx="275" cy="37" r="3"/>
         <circle cx="275" cy="46" r="3"/>
         <circle cx="275" cy="55" r="3"/>
         <circle cx="275" cy="65" r="3"/>
         <circle cx="275" cy="74" r="3"/>
         <circle cx="275" cy="83" r="3"/>
         <circle cx="295" cy="37" r="3"/>
         <circle cx="295" cy="46" r="3"/>
         <circle cx="295" cy="55" r="3"/>
         <circle cx="295" cy="65" r="3"/>
         <circle cx="295" cy="74" r="3"/>
         <circle cx="295" cy="83" r="3"/>
         <circle cx="285" cy="46" r="3"/>
         <circle cx="285" cy="74" r="3"/>
      </g>
      <g>
         <circle cx="245" cy="67" r="3"/>
         <circle cx="245" cy="76" r="3"/>
         <circle cx="245" cy="85" r="3"/>
         <circle cx="245" cy="95" r="3"/>
         <circle cx="245" cy="104" r="3"/>
         <circle cx="245" cy="113" r="3"/>
         <circle cx="265" cy="67" r="3"/>
         <circle cx="265" cy="76" r="3"/>
         <circle cx="265" cy="85" r="3"/>
         <circle cx="265" cy="95" r="3"/>
         <circle cx="265" cy="104" r="3"/>
         <circle cx="265" cy="113" r="3"/>
         <circle cx="255" cy="76" r="3"/>
         <circle cx="255" cy="104" r="3"/>
      </g>
      <g>
         <circle cx="275" cy="97" r="3"/>
         <circle cx="275" cy="106" r="3"/>
         <circle cx="275" cy="115" r="3"/>
         <circle cx="275" cy="125" r="3"/>
         <circle cx="275" cy="134" r="3"/>
         <circle cx="275" cy="143" r="3"/>
         <circle cx="295" cy="97" r="3"/>
         <circle cx="295" cy="106" r="3"/>
         <circle cx="295" cy="115" r="3"/>
         <circle cx="295" cy="125" r="3"/>
         <circle cx="295" cy="134" r="3"/>
         <circle cx="295" cy="143" r="3"/>
         <circle cx="285" cy="106" r="3"/>
         <circle cx="285" cy="134" r="3"/>
      </g>
      <g>
         <circle cx="245" cy="127" r="3"/>
         <circle cx="245" cy="136" r="3"/>
         <circle cx="245" cy="145" r="3"/>
         <circle cx="245" cy="155" r="3"/>
         <circle cx="245" cy="164" r="3"/>
         <circle cx="245" cy="173" r="3"/>
         <circle cx="265" cy="127" r="3"/>
         <circle cx="265" cy="136" r="3"/>
         <circle cx="265" cy="145" r="3"/>
         <circle cx="265" cy="155" r="3"/>
         <circle cx="265" cy="164" r="3"/>
         <circle cx="265" cy="173" r="3"/>
         <circle cx="255" cy="136" r="3"/>
         <circle cx="255" cy="164" r="3"/>
      </g>
      <g>
         <circle cx="275" cy="157" r="3"/>
         <circle cx="275" cy="166" r="3"/>
         <circle cx="275" cy="175" r="3"/>
         <circle cx="275" cy="185" r="3"/>
         <circle cx="275" cy="194" r="3"/>
         <circle cx="275" cy="203" r="3"/>
         <circle cx="295" cy="157" r="3"/>
         <circle cx="295" cy="166" r="3"/>
         <circle cx="295" cy="175" r="3"/>
         <circle cx="295" cy="185" r="3"/>
         <circle cx="295" cy="194" r="3"/>
         <circle cx="295" cy="203" r="3"/>
         <circle cx="285" cy="166" r="3"/>
         <circle cx="285" cy="194" r="3"/>
      </g>
      <g>
         <circle cx="245" cy="187" r="3"/>
         <circle cx="245" cy="196" r="3"/>
         <circle cx="245" cy="205" r="3"/>
         <circle cx="245" cy="215" r="3"/>
         <circle cx="245" cy="224" r="3"/>
         <circle cx="245" cy="233" r="3"/>
         <circle cx="265" cy="187" r="3"/>
         <circle cx="265" cy="196" r="3"/>
         <circle cx="265" cy="205" r="3"/>
         <circle cx="265" cy="215" r="3"/>
         <circle cx="265" cy="224" r="3"/>
         <circle cx="265" cy="233" r="3"/>
         <circle cx="255" cy="196" r="3"/>
         <circle cx="255" cy="224" r="3"/>
      </g>
      <g>
         <circle cx="275" cy="217" r="3"/>
         <circle cx="275" cy="226" r="3"/>
         <circle cx="275" cy="235" r="3"/>
         <circle cx="275" cy="245" r="3"/>
         <circle cx="275" cy="254" r="3"/>
         <circle cx="275" cy="263" r="3"/>
         <circle cx="295" cy="217" r="3"/>
         <circle cx="295" cy="226" r="3"/>
         <circle cx="295" cy="235" r="3"/>
         <circle cx="295" cy="245" r="3"/>
         <circle cx="295" cy="254" r="3"/>
         <circle cx="295" cy="263" r="3"/>
         <circle cx="285" cy="226" r="3"/>
         <circle cx="285" cy="254" r="3"/>
      </g>
      <g>
         <circle cx="247" cy="275" r="3"/>
         <circle cx="256" cy="275" r="3"/>
         <circle cx="265" cy="275" r="3"/>
         <circle cx="275" cy="275" r="3"/>
         <circle cx="284" cy="275" r="3"/>
         <circle cx="293" cy="275" r="3"/>
         <circle cx="247" cy="294" r="3"/>
         <circle cx="256" cy="294" r="3"/>
         <circle cx="265" cy="294" r="3"/>
         <circle cx="275" cy="294" r="3"/>
         <circle cx="284" cy="294" r="3"/>
         <circle cx="293" cy="294" r="3"/>
         <circle cx="256" cy="284.5" r="3"/>
         <circle cx="284" cy="284.5" r="3"/>
      </g>
      <g>
         <circle cx="217" cy="245" r="3"/>
         <circle cx="226" cy="245" r="3"/>
         <circle cx="235" cy="245" r="3"/>
         <circle cx="245" cy="245" r="3"/>
         <circle cx="254" cy="245" r="3"/>
         <circle cx="263" cy="245" r="3"/>
         <circle cx="217" cy="264" r="3"/>
         <circle cx="226" cy="264" r="3"/>
         <circle cx="235" cy="264" r="3"/>
         <circle cx="245" cy="264" r="3"/>
         <circle cx="254" cy="264" r="3"/>
         <circle cx="263" cy="264" r="3"/>
         <circle cx="226" cy="254.5" r="3"/>
         <circle cx="254" cy="254.5" r="3"/>
      </g>
      <g>
         <circle cx="187" cy="275" r="3"/>
         <circle cx="196" cy="275" r="3"/>
         <circle cx="205" cy="275" r="3"/>
         <circle cx="215" cy="275" r="3"/>
         <circle cx="224" cy="275" r="3"/>
         <circle cx="233" cy="275" r="3"/>
         <circle cx="187" cy="294" r="3"/>
         <circle cx="196" cy="294" r="3"/>
         <circle cx="205" cy="294" r="3"/>
         <circle cx="215" cy="294" r="3"/>
         <circle cx="224" cy="294" r="3"/>
         <circle cx="233" cy="294" r="3"/>
         <circle cx="196" cy="284.5" r="3"/>
         <circle cx="224" cy="284.5" r="3"/>
      </g>
      <g>
         <circle cx="157" cy="245" r="3"/>
         <circle cx="166" cy="245" r="3"/>
         <circle cx="175" cy="245" r="3"/>
         <circle cx="185" cy="245" r="3"/>
         <circle cx="194" cy="245" r="3"/>
         <circle cx="203" cy="245" r="3"/>
         <circle cx="157" cy="264" r="3"/>
         <circle cx="166" cy="264" r="3"/>
         <circle cx="175" cy="264" r="3"/>
         <circle cx="185" cy="264" r="3"/>
         <circle cx="194" cy="264" r="3"/>
         <circle cx="203" cy="264" r="3"/>
         <circle cx="166" cy="254.5" r="3"/>
         <circle cx="194" cy="254.5" r="3"/>
      </g>
      <g>
         <circle cx="127" cy="275" r="3"/>
         <circle cx="136" cy="275" r="3"/>
         <circle cx="145" cy="275" r="3"/>
         <circle cx="155" cy="275" r="3"/>
         <circle cx="164" cy="275" r="3"/>
         <circle cx="173" cy="275" r="3"/>
         <circle cx="127" cy="294" r="3"/>
         <circle cx="136" cy="294" r="3"/>
         <circle cx="145" cy="294" r="3"/>
         <circle cx="155" cy="294" r="3"/>
         <circle cx="164" cy="294" r="3"/>
         <circle cx="173" cy="294" r="3"/>
         <circle cx="136" cy="284.5" r="3"/>
         <circle cx="164" cy="284.5" r="3"/>
      </g>
      <g>
         <circle cx="97" cy="245" r="3"/>
         <circle cx="106" cy="245" r="3"/>
         <circle cx="115" cy="245" r="3"/>
         <circle cx="125" cy="245" r="3"/>
         <circle cx="134" cy="245" r="3"/>
         <circle cx="143" cy="245" r="3"/>
         <circle cx="97" cy="264" r="3"/>
         <circle cx="106" cy="264" r="3"/>
         <circle cx="115" cy="264" r="3"/>
         <circle cx="125" cy="264" r="3"/>
         <circle cx="134" cy="264" r="3"/>
         <circle cx="143" cy="264" r="3"/>
         <circle cx="106" cy="254.5" r="3"/>
         <circle cx="134" cy="254.5" r="3"/>
      </g>
      <g>
         <circle cx="67" cy="275" r="3"/>
         <circle cx="76" cy="275" r="3"/>
         <circle cx="85" cy="275" r="3"/>
         <circle cx="95" cy="275" r="3"/>
         <circle cx="104" cy="275" r="3"/>
         <circle cx="113" cy="275" r="3"/>
         <circle cx="67" cy="294" r="3"/>
         <circle cx="76" cy="294" r="3"/>
         <circle cx="85" cy="294" r="3"/>
         <circle cx="95" cy="294" r="3"/>
         <circle cx="104" cy="294" r="3"/>
         <circle cx="113" cy="294" r="3"/>
         <circle cx="76" cy="284.5" r="3"/>
         <circle cx="104" cy="284.5" r="3"/>
      </g>
      <g>
         <circle cx="37" cy="245" r="3"/>
         <circle cx="46" cy="245" r="3"/>
         <circle cx="55" cy="245" r="3"/>
         <circle cx="65" cy="245" r="3"/>
         <circle cx="74" cy="245" r="3"/>
         <circle cx="83" cy="245" r="3"/>
         <circle cx="37" cy="264" r="3"/>
         <circle cx="46" cy="264" r="3"/>
         <circle cx="55" cy="264" r="3"/>
         <circle cx="65" cy="264" r="3"/>
         <circle cx="74" cy="264" r="3"/>
         <circle cx="83" cy="264" r="3"/>
         <circle cx="46" cy="254.5" r="3"/>
         <circle cx="74" cy="254.5" r="3"/>
      </g>
      <g>
         <circle cx="7" cy="275" r="3"/>
         <circle cx="16" cy="275" r="3"/>
         <circle cx="25" cy="275" r="3"/>
         <circle cx="35" cy="275" r="3"/>
         <circle cx="44" cy="275" r="3"/>
         <circle cx="53" cy="275" r="3"/>
         <circle cx="7" cy="294" r="3"/>
         <circle cx="16" cy="294" r="3"/>
         <circle cx="25" cy="294" r="3"/>
         <circle cx="35" cy="294" r="3"/>
         <circle cx="44" cy="294" r="3"/>
         <circle cx="53" cy="294" r="3"/>
         <circle cx="16" cy="284.5" r="3"/>
         <circle cx="44" cy="284.5" r="3"/>
      </g>
      <g>
         <circle cx="5" cy="217" r="3"/>
         <circle cx="5" cy="226" r="3"/>
         <circle cx="5" cy="235" r="3"/>
         <circle cx="5" cy="245" r="3"/>
         <circle cx="5" cy="254" r="3"/>
         <circle cx="5" cy="263" r="3"/>
         <circle cx="25" cy="217" r="3"/>
         <circle cx="25" cy="226" r="3"/>
         <circle cx="25" cy="235" r="3"/>
         <circle cx="25" cy="245" r="3"/>
         <circle cx="25" cy="254" r="3"/>
         <circle cx="25" cy="263" r="3"/>
         <circle cx="15" cy="226" r="3"/>
         <circle cx="15" cy="254" r="3"/>
      </g>
      <g>
         <circle cx="35" cy="187" r="3"/>
         <circle cx="35" cy="196" r="3"/>
         <circle cx="35" cy="205" r="3"/>
         <circle cx="35" cy="215" r="3"/>
         <circle cx="35" cy="224" r="3"/>
         <circle cx="35" cy="233" r="3"/>
         <circle cx="55" cy="187" r="3"/>
         <circle cx="55" cy="196" r="3"/>
         <circle cx="55" cy="205" r="3"/>
         <circle cx="55" cy="215" r="3"/>
         <circle cx="55" cy="224" r="3"/>
         <circle cx="55" cy="233" r="3"/>
         <circle cx="45" cy="196" r="3"/>
         <circle cx="45" cy="224" r="3"/>
      </g>
      <g>
         <circle cx="5" cy="157" r="3"/>
         <circle cx="5" cy="166" r="3"/>
         <circle cx="5" cy="175" r="3"/>
         <circle cx="5" cy="185" r="3"/>
         <circle cx="5" cy="194" r="3"/>
         <circle cx="5" cy="203" r="3"/>
         <circle cx="25" cy="157" r="3"/>
         <circle cx="25" cy="166" r="3"/>
         <circle cx="25" cy="175" r="3"/>
         <circle cx="25" cy="185" r="3"/>
         <circle cx="25" cy="194" r="3"/>
         <circle cx="25" cy="203" r="3"/>
         <circle cx="15" cy="166" r="3"/>
         <circle cx="15" cy="194" r="3"/>
      </g>
   </g>
   <g stroke="black" stroke-width="1" fill="white">
      <rect x="90" y="120" width="120" height="60" rx="4"/>
      <line x1="150" y1="130" x2="150" y2="170"/>
   </g>
   <g fill="black">
      <circle cx="102" cy="131" r="6"/>
      <circle cx="119" cy="131" r="6"/>
      <circle cx="136" cy="131" r="6"/>
      <circle cx="164" cy="131" r="6"/>
      <circle cx="181" cy="131" r="6"/>
      <circle cx="198" cy="131" r="6"/>
      <circle cx="102" cy="169" r="6"/>
      <circle cx="119" cy="169" r="6"/>
      <circle cx="136" cy="169" r="6"/>
      <circle cx="164" cy="169" r="6"/>
      <circle cx="181" cy="169" r="6"/>
      <circle cx="198" cy="169" r="6"/>
      <circle cx="119" cy="150" r="6"/>
      <circle cx="181" cy="150" r="6"/>
   </g>
</svg>
