<?xml version='1.0' encoding='utf-8'?>
<svg xmlns="http://www.w3.org/2000/svg" viewBox="0 0 800 800"><defs><clipPath><circle cx="400" cy="400" r="400" style="fill:none"/></clipPath><linearGradient x1="406" y1="394" x2="167.9811" y2="632.0189" gradientUnits="userSpaceOnUse"><stop offset="0"/><stop offset="1" stop-opacity="0"/></linearGradient></defs><title>domino</title><circle cx="400" cy="400" r="400" style="fill:#1c8adb"/><g style="clip-path:url(#clip-path)"><path d="M258.557,780.557,568.2141,470.9a28.1889,28.1889,0,0,0,0-39.8649L368.9647,231.7859a28.1886,28.1886,0,0,0-39.8647,0L19.193,541.6929C57.9277,660.9753,142.8716,735.6157,258.557,780.557Z" style="opacity:0.42;fill:url(#Unbenannter_Verlauf_7)"/><path d="M329.1,231.7859,231.7859,329.1a28.1887,28.1887,0,0,0,0,39.8647L431.0352,568.2139a28.1887,28.1887,0,0,0,39.8648,0l97.314-97.314a28.1887,28.1887,0,0,0,0-39.8648L368.9647,231.7859A28.1887,28.1887,0,0,0,329.1,231.7859Zm3.7524,47.2152a16.8347,16.8347,0,1,1,0,23.8079A16.8348,16.8348,0,0,1,332.8523,279.0012Zm-9.07,98.6326a16.8347,16.8347,0,1,1,0,23.8079A16.8348,16.8348,0,0,1,323.7827,377.6338Zm143.365,143.365a16.8347,16.8347,0,1,1,0-23.8079A16.8348,16.8348,0,0,1,467.1477,520.9988Zm-44.7815-44.7815a16.8347,16.8347,0,1,1,0-23.8079A16.8348,16.8348,0,0,1,422.3662,476.2173Zm98.6326-9.07a16.8347,16.8347,0,1,1,0-23.8079A16.8348,16.8348,0,0,1,520.9988,467.1477Zm-44.7815-44.7815a16.8347,16.8347,0,1,1,0-23.8079A16.8348,16.8348,0,0,1,476.2173,422.3662Zm-12.4954-78.0119L344.3543,463.7219a5.78,5.78,0,0,1-8.1747-8.1747L455.5472,336.18a5.78,5.78,0,0,1,8.1747,8.1747Z" style="fill:#fff"/></g></svg>
